Coordinates
version=1
nRows=12
nColumns=28
inDegrees=yes

Units are S.I. units (second, meters, Newtons, ...)
Angles are in degrees.

endheader
time	pelvis_tilt	pelvis_list	pelvis_rotation	pelvis_tx	pelvis_ty	pelvis_tz	hip_flexion_r	hip_adduction_r	hip_rotation_r	knee_angle_r	ankle_angle_r	subtalar_angle_r	mtp_angle_r	hip_flexion_l	hip_adduction_l	hip_rotation_l	knee_angle_l	socket_flexion	socket_adduction	socket_rotation	socket_tx	socket_ty	socket_tz	foot_flex	lumbar_extension	lumbar_bending	lumbar_rotation
      0.95000000	      5.95200986	      0.62331623	     -3.90079538	      0.42190274	      1.04289950	      0.32859423	     -1.66299639	      2.09084138	     -5.05838294	    -18.03938755	      6.30733635	     -2.88102784	     19.44831767	      3.54411321	     -0.30388429	     -2.16331586	    -52.71115522	      0.00000000	      0.00000000	      0.00000000	      0.00000000	      0.00000000	      0.00000000	      0.38595285	    -13.44610221	     -1.09514109	      5.62458421
      0.95416667	      5.96372871	      0.63630950	     -4.13741992	      0.42623780	      1.04361494	      0.32913740	     -1.97881195	      2.02349364	     -5.11643123	    -17.97092032	      6.29844383	     -2.85204360	     19.45892240	      4.14085266	     -0.30308688	     -2.11090397	    -52.34688763	      0.00000000	      0.00000000	      0.00000000	      0.00000000	      0.00000000	      0.00000000	      0.42245611	    -13.59126720	     -1.13644644	      5.62751356
      0.95833333	      5.86691898	      0.84063479	     -4.32668166	      0.43143224	      1.04431448	      0.32966173	     -2.48771497	      1.78810262	     -4.98974453	    -17.32751715	      6.16888260	     -2.57481528	     19.51422924	      4.72255616	     -0.07724297	     -1.96183707	    -51.75920024	      0.00000000	      0.00000000	      0.00000000	      0.00000000	      0.00000000	      0.00000000	      0.38829533	    -13.43074591	     -1.42332807	      5.71054304
      0.96250000	      5.81698159	      0.92660024	     -4.53613449	      0.43615392	      1.04496135	      0.33021952	     -2.89924610	      1.66496702	     -4.93234468	    -16.94568996	      5.97878108	     -2.29549391	     19.59025366	      5.29991321	      0.01277824	     -1.82991692	    -51.21995197	      0.00000000	      0.00000000	      0.00000000	      0.00000000	      0.00000000	      0.00000000	      0.32981747	    -13.41858418	     -1.59766719	      5.85596335
      0.96666667	      5.77582325	      0.99371868	     -4.75434242	      0.44084415	      1.04555558	      0.33075601	     -3.30130579	      1.55197729	     -4.90269001	    -16.59572423	      5.83216995	     -2.02485228	     19.69610643	      5.86261416	      0.07674434	     -1.71410676	    -50.66905622	      0.00000000	      0.00000000	      0.00000000	      0.00000000	      0.00000000	      0.00000000	      0.32276453	    -13.42770886	     -1.73538331	      6.03562062
      0.97083333	      5.73714540	      1.04076960	     -4.97323582	      0.44551087	      1.04609140	      0.33122871	     -3.67668348	      1.45426890	     -4.86707401	    -16.31862172	      5.75169479	     -1.82505775	     19.77586489	      6.40102340	      0.13301102	     -1.55402294	    -50.06365904	      0.00000000	      0.00000000	      0.00000000	      0.00000000	      0.00000000	      0.00000000	      0.31246923	    -13.43152713	     -1.82716560	      6.17109242
      0.97500000	      5.73654658	      1.02640868	     -5.19730222	      0.44961799	      1.04651994	      0.33177280	     -3.95308195	      1.41484016	     -4.91503711	    -16.26270143	      5.74184519	     -1.78211633	     19.79221681	      6.98868396	      0.09033232	     -1.46286199	    -49.58571093	      0.00000000	      0.00000000	      0.00000000	      0.00000000	      0.00000000	      0.00000000	      0.34695369	    -13.60919665	     -1.86773703	      6.20092864
      0.97916667	      5.62250389	      1.14363420	     -5.36927155	      0.45474124	      1.04696604	      0.33227448	     -4.45252768	      1.27719283	     -4.76734122	    -15.58385146	      5.59238326	     -1.40488020	     19.89613593	      7.52288219	      0.22454455	     -1.21825633	    -48.82574497	      0.00000000	      0.00000000	      0.00000000	      0.00000000	      0.00000000	      0.00000000	      0.25317198	    -13.42125871	     -2.08563759	      6.43990924
      0.98333333	      5.61587120	      1.11515638	     -5.57672483	      0.45883276	      1.04726659	      0.33278666	     -4.71086809	      1.25114427	     -4.80822026	    -15.57077898	      5.57809438	     -1.36996744	     19.90993894	      8.09451657	      0.16178534	     -1.10541119	    -48.28569350	      0.00000000	      0.00000000	      0.00000000	      0.00000000	      0.00000000	      0.00000000	      0.29842015	    -13.60840601	     -2.09927896	      6.46855613
      0.98750000	      5.48386299	      1.17687371	     -5.71828554	      0.46397706	      1.04762035	      0.33323996	     -5.20580860	      1.18227367	     -4.64422762	    -14.88120544	      5.35898130	     -0.94930925	     20.04217280	      8.60488905	      0.24056066	     -0.79090822	    -47.43858360	      0.00000000	      0.00000000	      0.00000000	      0.00000000	      0.00000000	      0.00000000	      0.20720024	    -13.40337646	     -2.23416576	      6.77452195
      0.99166667	      5.44297587	      1.14151498	     -5.92634177	      0.46839820	      1.04786921	      0.33365647	     -5.50304087	      1.16357508	     -4.62433805	    -14.73669435	      5.29778305	     -0.83116006	     20.10132802	      9.09484470	      0.20454601	     -0.54794811	    -46.69999547	      0.00000000	      0.00000000	      0.00000000	      0.00000000	      0.00000000	      0.00000000	      0.22223614	    -13.44594315	     -2.22010790	      6.87813004
      0.99583333	      5.34312453	      1.12379238	     -6.05542907	      0.47309146	      1.04805165	      0.33412325	     -5.93330492	      1.16973732	     -4.54655472	    -14.21067955	      5.01793326	     -0.52646297	     20.34820064	      9.64155914	      0.16582400	     -0.28065505	    -45.95780670	      0.00000000	      0.00000000	      0.00000000	      0.00000000	      0.00000000	      0.00000000	      0.19578316	    -13.39899805	     -2.28720904	      7.18454544
